STARTFONT 2.1
COMMENT Copyright (C) 2022 by Andrew G. Crowell. Creative Commons Attribution 4.0 International License (CC BY 4.0).
COMMENT om_large_plain.bdf
FONT -eggboycolor-omelette_large_plain-medium-r-normal--16-100-72-72-m-90-ISO8859-1
SIZE 16 72 72
FONTBOUNDINGBOX 16 16 0 -2
STARTPROPERTIES 13
FONT_ASCENT 14 
FONT_DESCENT 2
PIXEL_SIZE 16
POINT_SIZE 100
RESOLUTION_X 72
RESOLUTION_Y 72
SPACING "C"
DEFAULT_CHAR 32
AVERAGE_WIDTH 90
CHARSET_REGISTRY "ISO8859"
CHARSET_ENCODING "1"
FOUNDRY "eggboycolor"
COPYRIGHT "Copyright (C) 2022 by Andrew G. Crowell. Creative Commons Attribution 4.0 International License (CC BY 4.0)."
ENDPROPERTIES
CHARS 96
STARTCHAR char32
ENCODING 32
SWIDTH 1600 0
DWIDTH 16 0
BBX 16 16 0 -2
BITMAP
0000
0000
0000
0000
0000
0000
0000
0000
0000
0000
0000
0000
0000
0000
0000
0000
ENDCHAR
STARTCHAR char33
ENCODING 33
SWIDTH 1600 0
DWIDTH 16 0
BBX 16 16 0 -2
BITMAP
0000
0070
0078
00F8
00F8
00F0
00E0
01C0
01C0
0180
0000
0000
0180
0180
0000
0000
ENDCHAR
STARTCHAR char34
ENCODING 34
SWIDTH 1600 0
DWIDTH 16 0
BBX 16 16 0 -2
BITMAP
0000
0000
0E70
0E70
0E70
0420
0000
0000
0000
0000
0000
0000
0000
0000
0000
0000
ENDCHAR
STARTCHAR char35
ENCODING 35
SWIDTH 1600 0
DWIDTH 16 0
BBX 16 16 0 -2
BITMAP
0000
0000
0198
0198
0330
0330
1FFC
0660
0660
3FF8
0CC0
0CC0
1980
1980
0000
0000
ENDCHAR
STARTCHAR char36
ENCODING 36
SWIDTH 1600 0
DWIDTH 16 0
BBX 16 16 0 -2
BITMAP
0000
0180
0180
0FF8
1D80
1980
1D80
0FF0
01B8
0198
01B8
1FF0
0180
0180
0000
0000
ENDCHAR
STARTCHAR char37
ENCODING 37
SWIDTH 1600 0
DWIDTH 16 0
BBX 16 16 0 -2
BITMAP
0000
3C08
6618
6638
6670
3CE0
01C0
0380
0700
0E78
1CCC
38CC
30CC
2078
0000
0000
ENDCHAR
STARTCHAR char38
ENCODING 38
SWIDTH 1600 0
DWIDTH 16 0
BBX 16 16 0 -2
BITMAP
0000
0380
06C0
0C60
0C60
0C60
06C0
038C
0798
0CF0
1870
1838
1C6C
0FC4
0000
0000
ENDCHAR
STARTCHAR char39
ENCODING 39
SWIDTH 1600 0
DWIDTH 16 0
BBX 16 16 0 -2
BITMAP
0000
0000
0380
0380
0180
0300
0000
0000
0000
0000
0000
0000
0000
0000
0000
0000
ENDCHAR
STARTCHAR char40
ENCODING 40
SWIDTH 1600 0
DWIDTH 16 0
BBX 16 16 0 -2
BITMAP
0000
00E0
01C0
0180
0380
0380
0380
0380
0380
0380
0380
0180
01C0
00E0
0000
0000
ENDCHAR
STARTCHAR char41
ENCODING 41
SWIDTH 1600 0
DWIDTH 16 0
BBX 16 16 0 -2
BITMAP
0000
0700
0380
0180
01C0
01C0
01C0
01C0
01C0
01C0
01C0
0180
0380
0700
0000
0000
ENDCHAR
STARTCHAR char42
ENCODING 42
SWIDTH 1600 0
DWIDTH 16 0
BBX 16 16 0 -2
BITMAP
0000
0000
0000
0180
0180
0DB0
0FF0
03C0
0FF0
0DB0
0180
0180
0000
0000
0000
0000
ENDCHAR
STARTCHAR char43
ENCODING 43
SWIDTH 1600 0
DWIDTH 16 0
BBX 16 16 0 -2
BITMAP
0000
0000
0000
0000
0180
0180
0180
0180
1FF8
1FF8
0180
0180
0180
0180
0000
0000
ENDCHAR
STARTCHAR char44
ENCODING 44
SWIDTH 1600 0
DWIDTH 16 0
BBX 16 16 0 -2
BITMAP
0000
0000
0000
0000
0000
0000
0000
0000
0000
0000
0000
0380
0380
0180
0300
0000
ENDCHAR
STARTCHAR char45
ENCODING 45
SWIDTH 1600 0
DWIDTH 16 0
BBX 16 16 0 -2
BITMAP
0000
0000
0000
0000
0000
0000
0000
0000
0FF0
0FF0
0000
0000
0000
0000
0000
0000
ENDCHAR
STARTCHAR char46
ENCODING 46
SWIDTH 1600 0
DWIDTH 16 0
BBX 16 16 0 -2
BITMAP
0000
0000
0000
0000
0000
0000
0000
0000
0000
0000
0000
0380
0380
0380
0000
0000
ENDCHAR
STARTCHAR char47
ENCODING 47
SWIDTH 1600 0
DWIDTH 16 0
BBX 16 16 0 -2
BITMAP
0000
0030
0030
0070
0060
00E0
00C0
01C0
0180
0380
0300
0700
0600
0600
0000
0000
ENDCHAR
STARTCHAR char48
ENCODING 48
SWIDTH 1600 0
DWIDTH 16 0
BBX 16 16 0 -2
BITMAP
0000
07E0
1FF8
1E78
3C3C
3C7C
3CFC
3DBC
3F3C
3E3C
3C3C
1E78
1FF8
07E0
0000
0000
ENDCHAR
STARTCHAR char49
ENCODING 49
SWIDTH 1600 0
DWIDTH 16 0
BBX 16 16 0 -2
BITMAP
0000
03C0
07C0
0FC0
03C0
03C0
03C0
03C0
03C0
03C0
03C0
03C0
0FF0
0FF0
0000
0000
ENDCHAR
STARTCHAR char50
ENCODING 50
SWIDTH 1600 0
DWIDTH 16 0
BBX 16 16 0 -2
BITMAP
0000
0FF0
1FF8
3C7C
383C
003C
0078
00F0
01E0
03C0
0780
0F00
1FFC
3FFC
0000
0000
ENDCHAR
STARTCHAR char51
ENCODING 51
SWIDTH 1600 0
DWIDTH 16 0
BBX 16 16 0 -2
BITMAP
0000
0FF0
1FF8
3C3C
381C
0038
01F0
01F8
003C
001C
381C
3C3C
1FF8
0FF0
0000
0000
ENDCHAR
STARTCHAR char52
ENCODING 52
SWIDTH 1600 0
DWIDTH 16 0
BBX 16 16 0 -2
BITMAP
0000
1E78
1E78
3C78
3C78
7878
7FFE
7FFE
0078
0078
0078
0078
0078
0078
0000
0000
ENDCHAR
STARTCHAR char53
ENCODING 53
SWIDTH 1600 0
DWIDTH 16 0
BBX 16 16 0 -2
BITMAP
0000
3FFC
3FFC
3C00
3C00
3C00
3FF0
3FF8
003C
001C
001C
003C
3FF8
3FF0
0000
0000
ENDCHAR
STARTCHAR char54
ENCODING 54
SWIDTH 1600 0
DWIDTH 16 0
BBX 16 16 0 -2
BITMAP
0000
01E0
03C0
0780
0F00
1FF0
3FF8
3C3C
381C
381C
381C
3C3C
1FF8
0FF0
0000
0000
ENDCHAR
STARTCHAR char55
ENCODING 55
SWIDTH 1600 0
DWIDTH 16 0
BBX 16 16 0 -2
BITMAP
0000
3FFC
3FFC
003C
003C
0078
00F0
01E0
03C0
0780
0780
0780
0780
0780
0000
0000
ENDCHAR
STARTCHAR char56
ENCODING 56
SWIDTH 1600 0
DWIDTH 16 0
BBX 16 16 0 -2
BITMAP
0000
07E0
1FF8
3C3C
381C
3C3C
1FF8
0FF0
1C38
381C
381C
3C3C
1FF8
07E0
0000
0000
ENDCHAR
STARTCHAR char57
ENCODING 57
SWIDTH 1600 0
DWIDTH 16 0
BBX 16 16 0 -2
BITMAP
0000
0FF0
1FF8
3C3C
381C
381C
3C3C
1FFC
0FF8
00F0
01E0
03C0
0780
0F00
0000
0000
ENDCHAR
STARTCHAR char58
ENCODING 58
SWIDTH 1600 0
DWIDTH 16 0
BBX 16 16 0 -2
BITMAP
0000
0000
0000
0000
0000
0380
0380
0380
0000
0000
0000
0380
0380
0380
0000
0000
ENDCHAR
STARTCHAR char59
ENCODING 59
SWIDTH 1600 0
DWIDTH 16 0
BBX 16 16 0 -2
BITMAP
0000
0000
0000
0000
0000
0380
0380
0380
0000
0000
0000
0380
0380
0180
0300
0000
ENDCHAR
STARTCHAR char60
ENCODING 60
SWIDTH 1600 0
DWIDTH 16 0
BBX 16 16 0 -2
BITMAP
0000
0000
0000
0000
0000
0000
0030
00F0
03C0
0F00
03C0
00F0
0030
0000
0000
0000
ENDCHAR
STARTCHAR char61
ENCODING 61
SWIDTH 1600 0
DWIDTH 16 0
BBX 16 16 0 -2
BITMAP
0000
0000
0000
0000
0000
0000
1FF8
1FF8
0000
0000
0000
1FF8
1FF8
0000
0000
0000
ENDCHAR
STARTCHAR char62
ENCODING 62
SWIDTH 1600 0
DWIDTH 16 0
BBX 16 16 0 -2
BITMAP
0000
0000
0000
0000
0000
0000
0C00
0F00
03C0
00F0
03C0
0F00
0C00
0000
0000
0000
ENDCHAR
STARTCHAR char63
ENCODING 63
SWIDTH 1600 0
DWIDTH 16 0
BBX 16 16 0 -2
BITMAP
0000
07F0
0FF8
1E3C
1C1C
003C
00F8
01E0
0180
0180
0000
0000
0180
0180
0000
0000
ENDCHAR
STARTCHAR char64
ENCODING 64
SWIDTH 1600 0
DWIDTH 16 0
BBX 16 16 0 -2
BITMAP
0000
03E0
0C38
180C
31CC
3266
6466
6466
64BC
6318
3000
1820
07C0
0000
0000
0000
ENDCHAR
STARTCHAR char65
ENCODING 65
SWIDTH 1600 0
DWIDTH 16 0
BBX 16 16 0 -2
BITMAP
0000
07E0
0FF0
1C38
3C3C
3C3C
3C3C
3FFC
3FFC
3C3C
3C3C
3C3C
3C3C
3C3C
0000
0000
ENDCHAR
STARTCHAR char66
ENCODING 66
SWIDTH 1600 0
DWIDTH 16 0
BBX 16 16 0 -2
BITMAP
0000
3FF0
3FF8
3C7C
3C3C
3C3C
3C78
3FF0
3C78
3C3C
3C3C
3C7C
3FF8
3FF0
0000
0000
ENDCHAR
STARTCHAR char67
ENCODING 67
SWIDTH 1600 0
DWIDTH 16 0
BBX 16 16 0 -2
BITMAP
0000
07F0
0FF8
1E3C
3C1C
3C00
3C00
3C00
3C00
3C00
3C1C
1E3C
0FF8
07F0
0000
0000
ENDCHAR
STARTCHAR char68
ENCODING 68
SWIDTH 1600 0
DWIDTH 16 0
BBX 16 16 0 -2
BITMAP
0000
3FE0
3FF8
3C78
3C3C
3C3C
3C3C
3C3C
3C3C
3C3C
3C3C
3C78
3FF8
3FE0
0000
0000
ENDCHAR
STARTCHAR char69
ENCODING 69
SWIDTH 1600 0
DWIDTH 16 0
BBX 16 16 0 -2
BITMAP
0000
3FFC
3FFC
3C00
3C00
3C00
3FFC
3FFC
3C00
3C00
3C00
3C00
3FFC
3FFC
0000
0000
ENDCHAR
STARTCHAR char70
ENCODING 70
SWIDTH 1600 0
DWIDTH 16 0
BBX 16 16 0 -2
BITMAP
0000
3FFC
3FFC
3C00
3C00
3C00
3FFC
3FFC
3C00
3C00
3C00
3C00
3C00
3C00
0000
0000
ENDCHAR
STARTCHAR char71
ENCODING 71
SWIDTH 1600 0
DWIDTH 16 0
BBX 16 16 0 -2
BITMAP
0000
0FF0
1FF8
3C3C
381C
3800
3800
38FC
38FC
381C
381C
3C3C
1FF8
0FF0
0000
0000
ENDCHAR
STARTCHAR char72
ENCODING 72
SWIDTH 1600 0
DWIDTH 16 0
BBX 16 16 0 -2
BITMAP
0000
3C3C
3C3C
3C3C
3C3C
3C3C
3FFC
3FFC
3FFC
3C3C
3C3C
3C3C
3C3C
3C3C
0000
0000
ENDCHAR
STARTCHAR char73
ENCODING 73
SWIDTH 1600 0
DWIDTH 16 0
BBX 16 16 0 -2
BITMAP
0000
3FFC
3FFC
03C0
03C0
03C0
03C0
03C0
03C0
03C0
03C0
03C0
3FFC
3FFC
0000
0000
ENDCHAR
STARTCHAR char74
ENCODING 74
SWIDTH 1600 0
DWIDTH 16 0
BBX 16 16 0 -2
BITMAP
0000
01FC
01FC
003C
003C
003C
003C
003C
003C
003C
3C3C
3C3C
1FF8
07E0
0000
0000
ENDCHAR
STARTCHAR char75
ENCODING 75
SWIDTH 1600 0
DWIDTH 16 0
BBX 16 16 0 -2
BITMAP
0000
3C3E
3C7C
3CF8
3DF0
3FE0
3FC0
3F80
3FC0
3FE0
3DF0
3CF8
3C7C
3C3E
0000
0000
ENDCHAR
STARTCHAR char76
ENCODING 76
SWIDTH 1600 0
DWIDTH 16 0
BBX 16 16 0 -2
BITMAP
0000
3C00
3C00
3C00
3C00
3C00
3C00
3C00
3C00
3C00
3C00
3C00
3FFC
3FFC
0000
0000
ENDCHAR
STARTCHAR char77
ENCODING 77
SWIDTH 1600 0
DWIDTH 16 0
BBX 16 16 0 -2
BITMAP
0000
700E
781E
7C3E
7E7E
7FFE
7BDE
799E
781E
781E
781E
781E
781E
781E
0000
0000
ENDCHAR
STARTCHAR char78
ENCODING 78
SWIDTH 1600 0
DWIDTH 16 0
BBX 16 16 0 -2
BITMAP
0000
303C
383C
3C3C
3E3C
3F3C
3FBC
3FFC
3DFC
3CFC
3C7C
3C3C
3C1C
3C0C
0000
0000
ENDCHAR
STARTCHAR char79
ENCODING 79
SWIDTH 1600 0
DWIDTH 16 0
BBX 16 16 0 -2
BITMAP
0000
03C0
0FF0
1E78
1C38
3C3C
3C3C
3C3C
3C3C
3C3C
1C38
1E78
0FF0
03C0
0000
0000
ENDCHAR
STARTCHAR char80
ENCODING 80
SWIDTH 1600 0
DWIDTH 16 0
BBX 16 16 0 -2
BITMAP
0000
3FE0
3FF8
3C7C
3C3C
3C3C
3C7C
3FF8
3FE0
3C00
3C00
3C00
3C00
3C00
0000
0000
ENDCHAR
STARTCHAR char81
ENCODING 81
SWIDTH 1600 0
DWIDTH 16 0
BBX 16 16 0 -2
BITMAP
0000
03C0
0FF0
1E78
1C38
3C3C
3C3C
3C3C
3C3C
3CBC
1CF8
1E78
0FF0
03B8
001C
0000
ENDCHAR
STARTCHAR char82
ENCODING 82
SWIDTH 1600 0
DWIDTH 16 0
BBX 16 16 0 -2
BITMAP
0000
3FE0
3FF8
3C7C
3C3C
3C3C
3C78
3FF0
3FC0
3DE0
3CF0
3C78
3C3C
3C1C
0000
0000
ENDCHAR
STARTCHAR char83
ENCODING 83
SWIDTH 1600 0
DWIDTH 16 0
BBX 16 16 0 -2
BITMAP
0000
0FF0
1FF8
3C3C
3800
3800
1FF0
0FF8
003C
001C
001C
3C3C
1FF8
0FF0
0000
0000
ENDCHAR
STARTCHAR char84
ENCODING 84
SWIDTH 1600 0
DWIDTH 16 0
BBX 16 16 0 -2
BITMAP
0000
3FFC
3FFC
03C0
03C0
03C0
03C0
03C0
03C0
03C0
03C0
03C0
03C0
03C0
0000
0000
ENDCHAR
STARTCHAR char85
ENCODING 85
SWIDTH 1600 0
DWIDTH 16 0
BBX 16 16 0 -2
BITMAP
0000
3C3C
3C3C
3C3C
3C3C
3C3C
3C3C
3C3C
3C3C
3C3C
3C3C
1C38
1FF8
07E0
0000
0000
ENDCHAR
STARTCHAR char86
ENCODING 86
SWIDTH 1600 0
DWIDTH 16 0
BBX 16 16 0 -2
BITMAP
0000
3C3C
3C3C
3C3C
3C3C
3C3C
3C3C
3C3C
3C3C
1C38
0E70
07E0
03C0
0180
0000
0000
ENDCHAR
STARTCHAR char87
ENCODING 87
SWIDTH 1600 0
DWIDTH 16 0
BBX 16 16 0 -2
BITMAP
0000
781E
781E
781E
781E
781E
781E
799E
7BDE
7FFE
7E7E
7C3E
781E
700E
0000
0000
ENDCHAR
STARTCHAR char88
ENCODING 88
SWIDTH 1600 0
DWIDTH 16 0
BBX 16 16 0 -2
BITMAP
0000
3C3C
3C3C
3C3C
1C38
0E70
07E0
03C0
07E0
0E70
1C38
3C3C
3C3C
3C3C
0000
0000
ENDCHAR
STARTCHAR char89
ENCODING 89
SWIDTH 1600 0
DWIDTH 16 0
BBX 16 16 0 -2
BITMAP
0000
3C3C
3C3C
3C3C
3C3C
3E7C
1FF8
0FF0
07E0
03C0
03C0
03C0
03C0
03C0
0000
0000
ENDCHAR
STARTCHAR char90
ENCODING 90
SWIDTH 1600 0
DWIDTH 16 0
BBX 16 16 0 -2
BITMAP
0000
3FFC
3FFC
007C
00F8
01F0
03E0
07C0
0F80
1F00
3E00
3C00
3FFC
3FFC
0000
0000
ENDCHAR
STARTCHAR char91
ENCODING 91
SWIDTH 1600 0
DWIDTH 16 0
BBX 16 16 0 -2
BITMAP
0000
07C0
07C0
0700
0700
0700
0700
0700
0700
0700
0700
0700
07C0
07C0
0000
0000
ENDCHAR
STARTCHAR char92
ENCODING 92
SWIDTH 1600 0
DWIDTH 16 0
BBX 16 16 0 -2
BITMAP
0000
0600
0600
0700
0300
0380
0180
01C0
00C0
00E0
0060
0070
0030
0030
0000
0000
ENDCHAR
STARTCHAR char93
ENCODING 93
SWIDTH 1600 0
DWIDTH 16 0
BBX 16 16 0 -2
BITMAP
0000
07C0
07C0
01C0
01C0
01C0
01C0
01C0
01C0
01C0
01C0
01C0
07C0
07C0
0000
0000
ENDCHAR
STARTCHAR char94
ENCODING 94
SWIDTH 1600 0
DWIDTH 16 0
BBX 16 16 0 -2
BITMAP
0000
0180
03C0
07E0
0E70
0C30
0000
0000
0000
0000
0000
0000
0000
0000
0000
0000
ENDCHAR
STARTCHAR char95
ENCODING 95
SWIDTH 1600 0
DWIDTH 16 0
BBX 16 16 0 -2
BITMAP
0000
0000
0000
0000
0000
0000
0000
0000
0000
0000
0000
0000
0FF8
0FF8
0000
0000
ENDCHAR
STARTCHAR char96
ENCODING 96
SWIDTH 1600 0
DWIDTH 16 0
BBX 16 16 0 -2
BITMAP
0000
0700
0780
03C0
01C0
0000
0000
0000
0000
0000
0000
0000
0000
0000
0000
0000
ENDCHAR
STARTCHAR char97
ENCODING 97
SWIDTH 1600 0
DWIDTH 16 0
BBX 16 16 0 -2
BITMAP
0000
0000
0000
0000
03E0
0FF8
1F78
1E3C
3C3C
3C3C
3C7C
3EFC
1FDC
0F9C
0000
0000
ENDCHAR
STARTCHAR char98
ENCODING 98
SWIDTH 1600 0
DWIDTH 16 0
BBX 16 16 0 -2
BITMAP
0000
0000
3C00
3C00
3C00
3DE0
3FF0
3E78
3C3C
3C3C
3C3C
3C7C
3FF8
3FF0
0000
0000
ENDCHAR
STARTCHAR char99
ENCODING 99
SWIDTH 1600 0
DWIDTH 16 0
BBX 16 16 0 -2
BITMAP
0000
0000
0000
0000
07E0
1FF8
1E3C
3C1C
3C00
3C00
3C1C
1E3C
1FF8
07E0
0000
0000
ENDCHAR
STARTCHAR char100
ENCODING 100
SWIDTH 1600 0
DWIDTH 16 0
BBX 16 16 0 -2
BITMAP
0000
0000
003C
003C
003C
07BC
0FFC
1E7C
3C3C
3C3C
3C3C
3E3C
1FFC
0FFC
0000
0000
ENDCHAR
STARTCHAR char101
ENCODING 101
SWIDTH 1600 0
DWIDTH 16 0
BBX 16 16 0 -2
BITMAP
0000
0000
0000
0000
07E0
1FF8
1E78
3C3C
3FFC
3FFC
3C00
1C00
1FFC
07F8
0000
0000
ENDCHAR
STARTCHAR char102
ENCODING 102
SWIDTH 1600 0
DWIDTH 16 0
BBX 16 16 0 -2
BITMAP
0000
00FC
01FC
03C0
03C0
03C0
1FF8
1FF8
03C0
03C0
03C0
03C0
03C0
03C0
0000
0000
ENDCHAR
STARTCHAR char103
ENCODING 103
SWIDTH 1600 0
DWIDTH 16 0
BBX 16 16 0 -2
BITMAP
0000
0000
0000
0000
07FC
1FFC
1E3C
3C3C
3E3C
1FFC
0FFC
003C
007C
0FF8
1FF0
0000
ENDCHAR
STARTCHAR char104
ENCODING 104
SWIDTH 1600 0
DWIDTH 16 0
BBX 16 16 0 -2
BITMAP
0000
3C00
3C00
3C00
3C00
3FF0
3FF8
3C78
3C3C
3C3C
3C3C
3C3C
3C3C
3C3C
0000
0000
ENDCHAR
STARTCHAR char105
ENCODING 105
SWIDTH 1600 0
DWIDTH 16 0
BBX 16 16 0 -2
BITMAP
0000
03C0
03C0
0000
0000
07C0
03C0
03C0
03C0
03C0
03C0
03C0
03C0
03E0
0000
0000
ENDCHAR
STARTCHAR char106
ENCODING 106
SWIDTH 1600 0
DWIDTH 16 0
BBX 16 16 0 -2
BITMAP
0000
0078
0078
0000
0000
0078
0078
0078
0078
0078
3C78
3C78
3C78
1FF0
0FE0
0000
ENDCHAR
STARTCHAR char107
ENCODING 107
SWIDTH 1600 0
DWIDTH 16 0
BBX 16 16 0 -2
BITMAP
0000
1E00
1E00
1E00
1E00
1E00
1E78
1EF0
1FE0
1FC0
1FE0
1EF0
1E78
1E3C
0000
0000
ENDCHAR
STARTCHAR char108
ENCODING 108
SWIDTH 1600 0
DWIDTH 16 0
BBX 16 16 0 -2
BITMAP
0000
0FC0
0FC0
03C0
03C0
03C0
03C0
03C0
03C0
03C0
03C0
03C0
03F0
03F0
0000
0000
ENDCHAR
STARTCHAR char109
ENCODING 109
SWIDTH 1600 0
DWIDTH 16 0
BBX 16 16 0 -2
BITMAP
0000
0000
0000
0000
3C3C
7E7E
7FFE
7FFE
7BDE
799E
781E
781E
781E
781E
0000
0000
ENDCHAR
STARTCHAR char110
ENCODING 110
SWIDTH 1600 0
DWIDTH 16 0
BBX 16 16 0 -2
BITMAP
0000
0000
0000
0000
3FE0
3FF0
3FF8
3C78
3C3C
3C3C
3C3C
3C3C
3C3C
3C3C
0000
0000
ENDCHAR
STARTCHAR char111
ENCODING 111
SWIDTH 1600 0
DWIDTH 16 0
BBX 16 16 0 -2
BITMAP
0000
0000
0000
0000
03C0
0FF0
1E78
3C3C
3C3C
3C3C
3C3C
1E78
0FF0
03C0
0000
0000
ENDCHAR
STARTCHAR char112
ENCODING 112
SWIDTH 1600 0
DWIDTH 16 0
BBX 16 16 0 -2
BITMAP
0000
0000
0000
0000
3FC0
3FF0
3C78
3C3C
3C1C
3C3C
3FF8
3FF0
3C00
3C00
3C00
0000
ENDCHAR
STARTCHAR char113
ENCODING 113
SWIDTH 1600 0
DWIDTH 16 0
BBX 16 16 0 -2
BITMAP
0000
0000
0000
0000
07F0
1FF0
3C70
7870
7070
78F0
3FF6
1F7C
0078
0070
0060
0000
ENDCHAR
STARTCHAR char114
ENCODING 114
SWIDTH 1600 0
DWIDTH 16 0
BBX 16 16 0 -2
BITMAP
0000
0000
0000
0000
3CF0
3DF8
3FFC
3F3C
3E1C
3C00
3C00
3C00
3C00
3C00
0000
0000
ENDCHAR
STARTCHAR char115
ENCODING 115
SWIDTH 1600 0
DWIDTH 16 0
BBX 16 16 0 -2
BITMAP
0000
0000
0000
0000
0FF8
1FFC
3C00
3800
1FF0
0FF8
001C
003C
3FF8
1FF0
0000
0000
ENDCHAR
STARTCHAR char116
ENCODING 116
SWIDTH 1600 0
DWIDTH 16 0
BBX 16 16 0 -2
BITMAP
0000
03C0
03C0
03C0
03C0
1FF8
1FF8
03C0
03C0
03C0
03C0
03C0
01F8
00FC
0000
0000
ENDCHAR
STARTCHAR char117
ENCODING 117
SWIDTH 1600 0
DWIDTH 16 0
BBX 16 16 0 -2
BITMAP
0000
0000
0000
0000
3C3C
3C3C
3C3C
3C3C
3C3C
3C7C
3CFC
3FFC
1FBC
0F3C
0000
0000
ENDCHAR
STARTCHAR char118
ENCODING 118
SWIDTH 1600 0
DWIDTH 16 0
BBX 16 16 0 -2
BITMAP
0000
0000
0000
0000
3C3C
3C3C
3C3C
3C3C
3C3C
1C38
0E70
07E0
03C0
0180
0000
0000
ENDCHAR
STARTCHAR char119
ENCODING 119
SWIDTH 1600 0
DWIDTH 16 0
BBX 16 16 0 -2
BITMAP
0000
0000
0000
0000
781E
781E
781E
781E
799E
7BDE
7FFE
7FFE
3E7C
1C38
0000
0000
ENDCHAR
STARTCHAR char120
ENCODING 120
SWIDTH 1600 0
DWIDTH 16 0
BBX 16 16 0 -2
BITMAP
0000
0000
0000
0000
381C
3C3C
1E78
0FF0
07E0
07E0
0FF0
1E78
3C3C
381C
0000
0000
ENDCHAR
STARTCHAR char121
ENCODING 121
SWIDTH 1600 0
DWIDTH 16 0
BBX 16 16 0 -2
BITMAP
0000
0000
0000
0000
3C3C
3C3C
3C3C
3C3C
3C3C
1FFC
0FFC
003C
0078
1FF0
3FE0
0000
ENDCHAR
STARTCHAR char122
ENCODING 122
SWIDTH 1600 0
DWIDTH 16 0
BBX 16 16 0 -2
BITMAP
0000
0000
0000
0000
3FFC
3FFC
00F8
01F0
03E0
07C0
0F80
1F00
3FFC
3FFC
0000
0000
ENDCHAR
STARTCHAR char123
ENCODING 123
SWIDTH 1600 0
DWIDTH 16 0
BBX 16 16 0 -2
BITMAP
0000
01E0
03C0
0380
0380
0700
1E00
3C00
1E00
0700
0380
0380
03C0
01E0
0000
0000
ENDCHAR
STARTCHAR char124
ENCODING 124
SWIDTH 1600 0
DWIDTH 16 0
BBX 16 16 0 -2
BITMAP
0000
0180
0180
0180
0180
0180
0180
0180
0180
0180
0180
0180
0180
0180
0000
0000
ENDCHAR
STARTCHAR char125
ENCODING 125
SWIDTH 1600 0
DWIDTH 16 0
BBX 16 16 0 -2
BITMAP
0000
0780
03C0
01C0
01C0
00E0
0078
003C
0078
00E0
01C0
01C0
03C0
0780
0000
0000
ENDCHAR
STARTCHAR char126
ENCODING 126
SWIDTH 1600 0
DWIDTH 16 0
BBX 16 16 0 -2
BITMAP
0000
0000
0000
0000
0000
0E00
1F04
3F8C
31FC
20F8
0070
0000
0000
0000
0000
0000
ENDCHAR
STARTCHAR char127
ENCODING 127
SWIDTH 1600 0
DWIDTH 16 0
BBX 16 16 0 -2
BITMAP
0000
0000
0000
0000
0000
0000
0000
0000
0000
0000
0000
318C
318C
0000
0000
0000
ENDCHAR
ENDFONT
